HIERARCHY
ROOT Hips
{
	OFFSET 0.00000 0.00000 0.00000
	CHANNELS 6 Xposition Yposition Zposition Zrotation Yrotation Xrotation 
	JOINT LHipJoint
	{
		OFFSET 0 0 0
		CHANNELS 3 Zrotation Yrotation Xrotation
		JOINT LeftUpLeg
		{
			OFFSET 1.09156 -1.61406 0.76500
			CHANNELS 3 Zrotation Yrotation Xrotation
			JOINT LeftLeg
			{
				OFFSET 2.33750 -6.42225 0.00000
				CHANNELS 3 Zrotation Yrotation Xrotation
				JOINT LeftFoot
				{
					OFFSET 2.49247 -6.84800 0.00000
					CHANNELS 3 Zrotation Yrotation Xrotation
					JOINT LeftToeBase
					{
						OFFSET 0.15312 -0.42069 1.45461
						CHANNELS 3 Zrotation Yrotation Xrotation
						End Site
						{
							OFFSET 0.00000 -0.00000 0.77046
						}
					}
				}
			}
		}
	}
	JOINT RHipJoint
	{
		OFFSET 0 0 0
		CHANNELS 3 Zrotation Yrotation Xrotation
		JOINT RightUpLeg
		{
			OFFSET -0.99883 -1.61406 0.76500
			CHANNELS 3 Zrotation Yrotation Xrotation
			JOINT RightLeg
			{
				OFFSET -2.36877 -6.50815 0.00000
				CHANNELS 3 Zrotation Yrotation Xrotation
				JOINT RightFoot
				{
					OFFSET -2.53452 -6.96353 0.00000
					CHANNELS 3 Zrotation Yrotation Xrotation
					JOINT RightToeBase
					{
						OFFSET -0.13156 -0.36145 1.63237
						CHANNELS 3 Zrotation Yrotation Xrotation
						End Site
						{
							OFFSET -0.00000 -0.00000 0.84979
						}
					}
				}
			}
		}
	}
	JOINT LowerBack
	{
		OFFSET 0 0 0
		CHANNELS 3 Zrotation Yrotation Xrotation
		JOINT Spine
		{
			OFFSET -0.02431 1.98242 -0.13616
			CHANNELS 3 Zrotation Yrotation Xrotation
			JOINT Spine1
			{
				OFFSET 0.03629 1.98974 -0.02954
				CHANNELS 3 Zrotation Yrotation Xrotation
				JOINT Neck
				{
					OFFSET 0 0 0
					CHANNELS 3 Zrotation Yrotation Xrotation
					JOINT Neck1
					{
						OFFSET 0.09349 1.40783 0.22333
						CHANNELS 3 Zrotation Yrotation Xrotation
						JOINT Head
						{
							OFFSET -0.04273 1.44500 -0.06495
							CHANNELS 3 Zrotation Yrotation Xrotation
							End Site
							{
								OFFSET -0.02251 1.44600 -0.04544
							}
						}
					}
				}
				JOINT LeftShoulder
				{
					OFFSET 0 0 0
					CHANNELS 3 Zrotation Yrotation Xrotation
					JOINT LeftArm
					{
						OFFSET 3.49137 0.85126 -0.29740
						CHANNELS 3 Zrotation Yrotation Xrotation
						JOINT LeftForeArm
						{
							OFFSET 5.06035 -0.00000 0.00000
							CHANNELS 3 Zrotation Yrotation Xrotation
							JOINT LeftHand
							{
								OFFSET 3.14780 -0.00000 0.00000
								CHANNELS 3 Zrotation Yrotation Xrotation
								JOINT LeftFingerBase
								{
									OFFSET 0 0 0
									CHANNELS 3 Zrotation Yrotation Xrotation
									JOINT LeftHandIndex1
									{
										OFFSET 0.60675 -0.00000 0.00000
										CHANNELS 3 Zrotation Yrotation Xrotation
										End Site
										{
											OFFSET 0.48918 -0.00000 0.00000
										}
									}
								}
								JOINT LThumb
								{
									OFFSET 0 0 0
									CHANNELS 3 Zrotation Yrotation Xrotation
									End Site
									{
										OFFSET 0.49664 -0.00000 0.49664
									}
								}
							}
						}
					}
				}
				JOINT RightShoulder
				{
					OFFSET 0 0 0
					CHANNELS 3 Zrotation Yrotation Xrotation
					JOINT RightArm
					{
						OFFSET -3.28101 0.69707 0.00747
						CHANNELS 3 Zrotation Yrotation Xrotation
						JOINT RightForeArm
						{
							OFFSET -5.12273 -0.00000 -0.00000
							CHANNELS 3 Zrotation Yrotation Xrotation
							JOINT RightHand
							{
								OFFSET -3.42200 -0.00000 0.00000
								CHANNELS 3 Zrotation Yrotation Xrotation
								JOINT RightFingerBase
								{
									OFFSET 0 0 0
									CHANNELS 3 Zrotation Yrotation Xrotation
									JOINT RightHandIndex1
									{
										OFFSET -0.70460 -0.00000 0.00000
										CHANNELS 3 Zrotation Yrotation Xrotation
										End Site
										{
											OFFSET -0.56807 -0.00000 0.00000
										}
									}
								}
								JOINT RThumb
								{
									OFFSET 0 0 0
									CHANNELS 3 Zrotation Yrotation Xrotation
									End Site
									{
										OFFSET -0.57674 -0.00000 0.57674
									}
								}
							}
						}
					}
				}
			}
		}
	}
}
MOTION
Frames: 15
Frame Time: 0.0487805
0.00 0.00 0.00 0 0 0 0 0 0 -21 0 0 0 0 0 0 0 0 0 0 0 0 0 0 21 0 0 0 0 0 0 0 0 0 0 0 0 0 0 0 0 0 0 0 0 0 0 -16 0 0 21 0 0 11 0 0 0 -8 0 0 0 0 0 0 0 0 0 0 0 0 0 0 0 0 0 0 0 0 8 0 0 0 0 0 0 0 0 0 0 0 0 0 0 0 0 0
0.00 0.00 0.00 176.9400 -3.1918 -175.1850 0.0000 0.0000 0.0000 -23.3295 1.8211 -9.0478 1.8643 8.5776 24.4827 1.0525 -13.1150 -19.2207 4.0923 12.2822 36.7378 0.0000 0.0000 0.0000 6.6510 3.2679 -7.6151 -2.4274 -9.7047 28.0255 0.0245 -11.9163 -16.6192 -0.0558 1.5249 -4.1944 -2.7160 -1.1884 -5.1684 -0.8947 -1.4467 -0.3964 0.4963 -0.7646 2.5326 1.5009 -1.2681 -7.1549 3.8092 -2.2163 5.4018 0.8657 -0.9687 3.0182 0.0000 0.0000 0.0000 -91.2322 -6.3657 15.2684 6.9322 -11.8075 -0.7177 -0.0000 -0.0000 16.0316 18.7238 46.7512 13.8680 -7.1250 0.0000 -0.0000 -40.0962 75.2858 -29.6124 0.0000 0.0000 0.0000 87.1047 3.6407 15.6973 -8.7521 14.7644 -1.1361 0.0000 0.0000 21.2075 -14.1171 32.2347 -7.6405 7.1250 -0.0000 -0.0000 9.9627 2.6121 10.5646
0.00 0.00 0.00 176.6900 -3.2704 -175.2710 0.0000 0.0000 0.0000 -25.0826 2.5355 -8.0436 1.6972 8.2045 23.3371 1.0816 -12.4411 -19.2783 3.7801 11.8618 35.2450 0.0000 0.0000 0.0000 5.1534 5.4938 -16.4371 -5.8442 -14.2756 44.3531 0.3154 -10.9433 -9.0096 -0.1734 -2.6824 7.3958 -3.9691 -2.1863 -4.8482 0.1250 -2.7137 -0.1129 2.1536 -1.4127 2.7916 1.6260 -1.4060 -6.6233 1.6735 -2.0905 4.1223 0.1681 -0.9460 2.4486 0.0000 0.0000 0.0000 -91.3188 -5.6220 7.5165 5.7287 -9.8089 -0.4920 -0.0000 -0.0000 22.7083 18.6144 46.0472 13.6299 -7.1250 0.0000 -0.0000 -38.1944 74.7630 -27.7229 0.0000 0.0000 0.0000 85.8091 2.8954 27.2098 -12.9663 21.2378 -2.4411 0.0000 0.0000 11.7679 -15.0580 32.6207 -8.2521 7.1250 -0.0000 -0.0000 9.4745 3.1509 10.1172
0.00 0.00 0.00 177.3260 -3.1482 -174.8680 0.0000 0.0000 0.0000 -25.8704 2.3030 -2.2726 1.0731 6.5851 18.4919 1.2937 -9.4833 -20.4349 4.6208 12.9436 39.1577 0.0000 0.0000 0.0000 8.9751 5.5440 -29.2975 -2.7213 -10.2296 29.7236 -0.1618 -3.3550 -9.5977 -0.1687 2.6463 -7.2955 -4.3736 -2.4041 -4.1287 0.2463 -3.0166 -0.0949 2.5107 -1.5625 2.4553 1.3029 -2.5811 -4.4406 2.0468 -3.4747 -0.1121 0.3445 -1.6853 0.7105 0.0000 0.0000 0.0000 -88.7408 -7.1990 9.0838 5.6348 -9.6517 -0.4761 -0.0000 -0.0000 22.4598 18.2135 46.2224 13.3646 -7.1250 0.0000 -0.0000 -39.1075 74.7323 -28.4065 0.0000 0.0000 0.0000 82.2286 6.9965 39.2491 -37.1104 46.2616 -16.3197 0.0000 0.0000 6.7965 -23.4238 33.2847 -13.3742 7.1250 -0.0000 -0.0000 4.9026 5.4860 5.3678
0.00 0.00 0.00 176.8680 -7.5819 -172.3340 0.0000 0.0000 0.0000 -23.2450 1.9600 9.5163 0.0192 0.8939 2.4571 0.6302 -5.6574 -14.1455 4.2491 12.4847 37.4689 0.0000 0.0000 0.0000 7.6029 12.3200 -23.5534 -0.5800 -4.8767 13.5573 0.4310 -12.2598 -8.9525 -0.1423 -2.4311 6.6987 -6.1532 -3.0359 -6.7770 0.3254 -3.6504 -0.7634 3.4231 -1.9255 3.4103 -0.7003 -3.7195 -4.3848 3.3311 -4.8359 -1.5184 1.0563 -2.3490 0.3626 0.0000 0.0000 0.0000 -91.0943 -6.6565 20.7960 7.4784 -12.7038 -0.8336 -0.0000 -0.0000 12.3680 17.5587 46.1774 12.8600 -7.1250 0.0000 -0.0000 -39.6689 74.4542 -28.6238 0.0000 0.0000 0.0000 81.1491 15.3426 36.2963 -59.8680 56.2747 -34.2313 0.0000 0.0000 11.1873 -30.9407 33.7640 -18.4260 7.1250 -0.0000 -0.0000 0.8691 7.9508 0.9811
0.00 0.00 0.00 181.9660 -12.1694 -173.6490 0.0000 0.0000 0.0000 -11.1192 -0.5022 16.2527 0.1105 2.1434 5.9023 0.0269 -0.3371 -2.9968 3.8598 11.9715 35.6311 0.0000 0.0000 0.0000 22.1107 -0.4324 -19.0975 -0.7035 -5.3609 14.9410 -0.0144 -4.6968 -7.1893 -0.0005 -0.1463 0.4018 -1.9135 -2.3342 -7.5587 0.7373 -3.0773 -1.7189 1.5317 -1.5884 2.5957 -1.1996 -4.5502 -3.7834 4.1284 -6.1308 -0.4852 1.3644 -3.0619 0.6558 0.0000 -0.0000 0.0000 -90.4683 -6.3391 8.6944 5.4361 -9.3184 -0.4434 -0.0000 -0.0000 23.3913 18.3643 46.3624 13.5092 -7.1250 0.0000 -0.0000 -39.3433 74.8854 -28.7088 0.0000 -0.0000 0.0000 67.7125 43.7571 31.8517 -66.0279 57.7132 -39.3989 0.0000 0.0000 17.7304 -30.9788 32.3252 -17.7980 7.1250 -0.0000 -0.0000 0.5380 6.4487 0.5950
0.00 0.00 0.00 182.6200 -16.2724 -175.1280 0.0000 0.0000 0.0000 -6.3508 -0.8183 11.5821 1.2931 7.2049 20.3239 0.0988 7.7380 7.3387 7.4421 15.6932 50.5273 0.0000 0.0000 0.0000 27.9083 -7.6965 -13.3411 -0.6063 -4.9841 13.8632 -0.1853 -5.0422 -11.5402 -0.5631 4.8063 -13.3570 -0.0763 -2.2231 -7.7914 0.3098 -3.0365 -1.2568 0.0475 -1.5433 3.0841 -2.3163 -5.2345 -2.5080 4.4541 -6.9799 -1.6317 1.6908 -3.5051 0.1652 -0.0000 -0.0000 0.0000 -90.5077 -8.5149 22.5398 7.5991 -12.9009 -0.8604 -0.0000 -0.0000 10.8723 17.2260 46.9397 12.7639 -7.1250 0.0000 -0.0000 -42.1699 74.8364 -30.8864 -0.0000 -0.0000 0.0000 47.8841 63.3067 16.4036 -45.4921 51.0073 -22.6206 0.0000 0.0000 23.5324 -28.1676 31.2775 -15.5363 7.1250 -0.0000 -0.0000 1.8983 4.5731 2.0447
0.00 0.00 0.00 180.7300 -20.3548 -172.6310 0.0000 0.0000 0.0000 -5.5526 0.8674 9.3131 1.3082 7.2453 20.4440 0.1965 14.9972 12.5898 7.3183 15.5942 50.0683 0.0000 0.0000 0.0000 27.7313 -6.9247 -11.4699 -0.6752 -5.2542 14.6351 -0.3269 -8.1071 -16.6627 -0.0411 -1.3081 3.5970 0.0876 -1.6030 -8.6415 -0.4725 -2.2315 -1.7396 -0.7867 -1.1532 3.0166 -2.7453 -5.8137 -2.1102 3.2539 -7.7200 -0.9719 1.3740 -3.8573 0.2934 -0.0000 0.0000 0.0000 -88.8971 -7.1784 8.7513 4.7872 -8.2251 -0.3444 -0.0000 -0.0000 23.5806 18.1628 47.0943 13.5119 -7.1250 0.0000 -0.0000 -41.6947 75.2959 -30.8859 -0.0000 0.0000 0.0000 8.8356 71.2322 -16.5938 -30.3699 41.2083 -11.6525 0.0000 0.0000 32.8594 -28.0582 27.5910 -13.8673 7.1250 -0.0000 -0.0000 1.3164 0.6465 1.3315
0.00 0.00 0.00 180.0790 -21.3777 -171.5540 0.0000 0.0000 0.0000 -6.2961 -0.4893 11.1750 0.8800 5.9804 16.7275 0.0074 16.7884 11.8718 7.6379 15.8463 51.2476 0.0000 0.0000 0.0000 26.9289 -4.1583 -11.2763 -0.7524 -5.5401 15.4556 -0.1282 -11.2724 -17.7613 -0.3322 -3.7042 10.2460 -0.2466 -1.9353 -8.5629 -0.8398 -2.6254 -1.5639 -1.0233 -1.3479 3.1471 -3.9627 -6.5012 -1.7753 3.1426 -8.6137 -0.7828 1.5349 -4.2997 0.3740 -0.0000 -0.0000 0.0000 -88.6723 -9.2657 11.3290 5.4360 -9.3182 -0.4433 -0.0000 -0.0000 21.8200 19.3902 46.0646 14.2225 -7.1250 0.0000 -0.0000 -37.4045 75.0703 -27.3427 -0.0000 -0.0000 0.0000 -17.5698 73.9798 -45.9960 -20.6420 31.4080 -5.8622 0.0000 0.0000 39.1300 -42.7838 32.2159 -26.2611 7.1250 -0.0000 -0.0000 -5.8998 10.4779 -6.9076
0.00 0.00 0.00 179.9000 -22.6850 -171.2790 0.0000 0.0000 0.0000 -6.6988 -2.1040 11.6787 0.8286 5.8075 16.2269 -0.4595 19.2762 9.1766 8.0168 16.1316 52.6232 0.0000 0.0000 0.0000 27.0570 -6.2568 -12.3017 -0.7983 -5.7027 15.9241 -0.2126 -10.8609 -18.2882 -0.0724 -1.7355 4.7754 -0.3679 -1.4554 -7.9159 -0.9917 -1.9659 -1.4873 -1.0201 -1.0172 2.8744 -5.9672 -7.3914 -1.8288 3.4172 -9.7633 -1.0894 1.9382 -4.8710 0.4494 -0.0000 0.0000 0.0000 -88.9277 -9.6806 14.1163 5.5891 -9.5751 -0.4685 -0.0000 -0.0000 19.7937 18.3885 45.1387 13.2589 -7.1250 0.0000 -0.0000 -36.0322 74.0305 -25.5270 -0.0000 0.0000 0.0000 -37.9221 73.4289 -74.8624 -14.8983 24.0043 -3.1845 0.0000 0.0000 48.1396 -54.8258 34.5654 -38.8353 7.1250 -0.0000 -0.0000 -11.3229 19.3047 -14.6562
0.00 0.00 0.00 180.0640 -23.4530 -171.1120 0.0000 0.0000 0.0000 -6.1737 -1.9989 11.2993 0.8442 5.8606 16.3805 -0.4331 19.2131 9.3954 7.8763 16.0275 52.1159 0.0000 0.0000 0.0000 27.2945 -5.2544 -11.7995 -0.7959 -5.6944 15.9003 -0.1567 -12.0540 -19.0940 -0.3037 -3.5433 9.7953 0.1460 -1.3035 -7.8466 -1.2799 -1.7838 -1.2019 -1.5907 -0.9141 3.1087 -5.2918 -7.9667 -1.7194 2.9601 -10.5454 -0.5940 1.6540 -5.2653 0.5571 0.0000 -0.0000 0.0000 -87.9650 -9.1143 14.3414 4.2244 -7.2710 -0.2685 -0.0000 -0.0000 19.8784 20.7645 46.6376 15.4111 -7.1250 0.0000 -0.0000 -37.5845 76.0012 -28.1737 0.0000 -0.0000 0.0000 -55.6232 71.3706 -106.2796 -10.1566 16.9842 -1.5204 0.0000 0.0000 59.0483 -67.5287 38.8570 -56.6033 7.1250 -0.0000 -0.0000 -15.7256 32.9355 -22.2125
0.00 0.00 0.00 179.6630 -24.3869 -170.5710 0.0000 0.0000 0.0000 -6.4586 -2.2171 11.0660 0.7897 5.6728 15.8379 -0.4802 19.2448 8.9202 7.9007 16.0457 52.2041 0.0000 0.0000 0.0000 26.9559 -4.9978 -12.3652 -0.8429 -5.8562 16.3678 -0.0519 -13.1078 -19.2558 -0.2663 -3.3198 9.1705 -0.3716 -1.8888 -7.4551 -0.7601 -2.4989 -0.5308 -0.8385 -1.2597 3.6102 -6.9918 -8.1427 -1.7192 2.7414 -10.7501 0.2808 1.8404 -5.3784 0.9292 -0.0000 -0.0000 0.0000 -88.4429 -10.1972 15.8204 4.7093 -8.0933 -0.3333 -0.0000 -0.0000 18.6468 19.6294 46.6385 14.5370 -7.1250 0.0000 -0.0000 -38.8107 75.5595 -28.8110 -0.0000 -0.0000 0.0000 -69.5637 68.2074 -133.3111 -6.8698 11.7048 -0.7050 0.0000 0.0000 70.1157 -72.8341 43.0246 -65.6426 7.1250 -0.0000 -0.0000 -15.9502 40.7730 -22.8570
0.00 0.00 0.00 180.0220 -24.5628 -171.0960 0.0000 0.0000 0.0000 -6.6775 -2.5843 10.1365 0.9550 6.2232 17.4333 -0.6911 21.3761 8.9691 8.5162 16.4861 54.4016 0.0000 0.0000 0.0000 27.1855 -6.9632 -12.7184 -0.7790 -5.6351 15.7294 -0.2492 -11.6547 -19.6515 -0.0689 -1.6939 4.6605 -0.4217 -2.1370 -7.0148 0.0458 -2.8256 0.3505 -0.0170 -1.4150 4.3178 -6.9135 -7.8530 -2.5054 3.3198 -10.3214 -0.5156 2.0091 -5.1514 0.8205 0.0000 -0.0000 0.0000 -83.0848 -15.6966 51.2172 21.2677 -32.1395 -6.1917 -0.0000 0.0000 -4.9057 26.4244 45.8970 19.6386 -7.1250 0.0000 -0.0000 -28.4158 77.7188 -22.0246 0.0000 -0.0000 0.0000 -76.3541 65.4666 -155.3855 -5.9494 10.1778 -0.5303 0.0000 0.0000 84.5149 -75.4730 43.2568 -69.2870 7.1250 -0.0000 -0.0000 -17.0711 43.1858 -24.5261
0.00 0.00 0.00 179.4650 -24.3137 -170.6800 0.0000 0.0000 0.0000 -7.4260 -2.5819 10.5221 0.8126 5.7526 16.0682 -0.8038 21.9206 8.4287 8.2559 16.3043 53.4792 0.0000 0.0000 0.0000 26.6295 -6.2301 -13.7556 -0.8908 -6.0158 16.8303 -0.0821 -12.3686 -18.6209 -0.0871 -1.9033 5.2384 -0.5092 -2.5066 -6.3640 0.4074 -3.3302 0.0922 0.3890 -1.6726 3.7136 -7.2057 -7.1457 -4.2002 3.8174 -9.2692 -0.7378 2.1950 -4.6151 1.0307 0.0000 0.0000 0.0000 -69.2431 -49.0718 56.1532 52.0833 -53.8019 -27.8467 -0.0000 0.0000 -9.6346 35.1640 44.9635 26.4653 -7.1250 0.0000 -0.0000 -10.5092 80.5337 -8.6495 0.0000 0.0000 0.0000 -77.5440 65.9408 -154.9359 -6.0067 10.2733 -0.5405 0.0000 0.0000 82.5992 -76.1055 44.0917 -70.4288 7.1250 -0.0000 -0.0000 -16.7990 44.2725 -24.1122
0.00 0.00 0.00 179.0520 -21.6706 -170.1670 0.0000 0.0000 0.0000 -8.8395 -2.4483 11.1706 0.7501 5.5321 15.4326 -1.0657 23.4559 7.6224 8.6576 16.5822 54.8982 0.0000 0.0000 0.0000 25.8579 -5.7164 -14.3221 -0.9444 -6.1894 17.3351 -0.3258 -10.9630 -19.6949 -0.0853 -1.8833 5.1832 -1.0258 -2.2511 -6.7080 0.3491 -2.9488 0.0114 0.6416 -1.4933 3.8410 -7.3731 -6.5238 -4.9318 4.4915 -8.4034 -1.3517 2.4649 -4.1751 0.9560 0.0000 -0.0000 0.0000 -55.8960 -66.4382 44.2557 56.7026 -55.3653 -31.6123 -0.0000 0.0000 -7.5746 35.2157 43.3423 25.8480 -7.1250 0.0000 -0.0000 -6.3666 79.0375 -5.0427 0.0000 -0.0000 0.0000 -79.7599 67.0017 -148.9707 -6.3232 10.8001 -0.5983 0.0000 0.0000 74.4033 -77.8415 43.7912 -72.7072 7.1250 -0.0000 -0.0000 -17.8643 45.5940 -25.6625
